<svg width="20" height="20" viewBox="0 0 20 20" fill="none" xmlns="http://www.w3.org/2000/svg">
<rect width="20" height="20" fill="#1E1E1E"/>
<path d="M-1044 -639C-1044 -661.091 -1026.09 -679 -1004 -679H868C890.091 -679 908 -661.091 908 -639V285C908 307.091 890.091 325 868 325H-1004C-1026.09 325 -1044 307.091 -1044 285V-639Z" fill="#29292E"/>
<rect width="1366" height="768" transform="translate(-964 -599)" fill="#F4F5FB"/>
<rect x="-595" y="-12" width="627" height="44" rx="12" fill="#C93847"/>
<path fill-rule="evenodd" clip-rule="evenodd" d="M4.46967 4.46967C4.76256 4.17678 5.23744 4.17678 5.53033 4.46967L10 8.93934L14.4697 4.46967C14.7626 4.17678 15.2374 4.17678 15.5303 4.46967C15.8232 4.76256 15.8232 5.23744 15.5303 5.53033L11.0607 10L15.5303 14.4697C15.8232 14.7626 15.8232 15.2374 15.5303 15.5303C15.2374 15.8232 14.7626 15.8232 14.4697 15.5303L10 11.0607L5.53033 15.5303C5.23744 15.8232 4.76256 15.8232 4.46967 15.5303C4.17678 15.2374 4.17678 14.7626 4.46967 14.4697L8.93934 10L4.46967 5.53033C4.17678 5.23744 4.17678 4.76256 4.46967 4.46967Z" fill="white"/>
</svg>
